<svg width="712" height="769" viewBox="0 0 712 769" fill="none" xmlns="http://www.w3.org/2000/svg">
<path fill-rule="evenodd" clip-rule="evenodd" d="M697.167 14.8333H14.8333V754.028H697.167V14.8333ZM0 0V768.861H712V0H0Z" fill="white"/>
<path d="M181.459 341.167H211.348V340.86C206.29 331.357 205.217 326.145 205.217 313.423V295.183H215.334C245.223 295.183 261.01 280.315 261.01 259.929C261.01 243.529 251.047 228.967 217.633 228.967H181.459V229.274C186.364 238.777 187.59 243.989 187.59 256.711V313.423C187.59 325.992 186.364 331.357 181.459 340.86V341.167ZM215.027 232.033C230.661 232.033 243.23 238.011 243.23 260.236C243.23 276.637 235.106 292.118 214.721 292.118H205.217V232.339C210.122 232.033 212.881 232.033 215.027 232.033Z" fill="white"/>
<path d="M299.196 341.167H329.085V340.86C324.027 331.357 322.954 326.145 322.954 313.423V284.914H376.448V313.423C376.448 325.992 375.375 331.357 370.317 340.86V341.167H400.206V340.86C395.301 331.357 394.075 326.145 394.075 313.423V256.711C394.075 243.989 395.301 238.777 400.206 229.274V228.967H370.317V229.274C375.375 238.777 376.448 244.142 376.448 256.711V281.848H322.954V256.711C322.954 243.989 324.027 238.777 329.085 229.274V228.967H299.196V229.274C304.101 238.777 305.327 243.989 305.327 256.711V313.423C305.327 325.992 304.101 331.357 299.196 340.86V341.167Z" fill="white"/>
<path d="M491.688 343.466C520.964 343.466 530.467 324.613 530.467 302.694V259.47C530.467 245.675 532.613 240.003 541.503 229.274L540.736 228.967H515.905V229.274C524.949 240.003 526.941 245.675 526.941 259.47V302.847C526.941 322.16 518.818 339.634 495.979 339.634C478.965 339.634 467.47 330.437 467.47 304.227V256.711C467.47 243.989 469.462 237.091 473.601 229.274V228.967H443.712V229.274C448.77 238.777 449.843 243.989 449.843 256.711V304.687C449.843 332.277 469.002 343.466 491.688 343.466Z" fill="white"/>
<path d="M186.001 560.057C193.358 560.057 199.029 558.678 202.555 556.532L209.299 542.277C194.891 545.343 167.607 549.788 144.922 536.299C173.432 535.686 202.095 510.242 202.095 478.054C202.095 445.559 172.972 419.501 144.156 419.501C115.34 419.501 86.5234 445.559 86.5234 478.054C86.5234 509.322 113.194 534.306 140.937 536.146C144.769 541.664 158.564 560.057 186.001 560.057ZM144.156 533.234C117.792 533.234 105.99 509.629 105.99 478.054C105.99 446.478 117.792 422.567 144.156 422.567C170.673 422.567 182.629 446.478 182.629 478.054C182.629 509.782 170.673 533.234 144.156 533.234Z" fill="white"/>
<path d="M286.867 536.299C316.143 536.299 325.646 517.446 325.646 495.527V452.303C325.646 438.508 327.792 432.837 336.682 422.107L335.916 421.801H311.085V422.107C320.128 432.837 322.121 438.508 322.121 452.303V495.68C322.121 514.993 313.997 532.467 291.159 532.467C274.145 532.467 262.649 523.27 262.649 497.06V449.544C262.649 436.822 264.642 429.924 268.78 422.107V421.801H238.891V422.107C243.949 431.61 245.022 436.822 245.022 449.544V497.52C245.022 525.11 264.182 536.299 286.867 536.299Z" fill="white"/>
<path d="M428.576 536.299C457.392 536.299 486.515 510.548 486.515 478.054C486.515 445.559 457.392 419.501 428.576 419.501C399.76 419.501 370.944 445.559 370.944 478.054C370.944 510.548 399.76 536.299 428.576 536.299ZM428.576 533.234C402.212 533.234 390.41 509.629 390.41 478.054C390.41 446.478 402.212 422.567 428.576 422.567C455.093 422.567 467.049 446.478 467.049 478.054C467.049 509.782 455.093 533.234 428.576 533.234Z" fill="white"/>
<path d="M628.366 497.213L627.14 496.753C616.411 518.212 604.915 533.234 583.149 533.234C556.173 533.234 544.37 509.782 544.37 477.9C544.37 446.172 555.713 422.567 584.069 422.567C601.696 422.567 611.506 431.304 626.527 452.456L627.753 451.996L624.688 426.859C616.564 423.64 602.309 419.501 586.062 419.501C550.348 419.501 524.904 445.252 524.904 477.9C524.904 510.702 547.742 536.299 583.149 536.299C604.148 536.299 622.695 527.256 625.301 525.263L628.366 497.213Z" fill="white"/>
</svg>
